<!DOCTYPE svg PUBLIC "-//W3C//DTD SVG 1.1//EN" "http://www.w3.org/Graphics/SVG/1.1/DTD/svg11.dtd">
<!-- Uploaded to: SVG Repo, www.svgrepo.com, Transformed by: SVG Repo Mixer Tools -->
<svg height="800px" width="800px" version="1.1" id="Layer_1" xmlns="http://www.w3.org/2000/svg" xmlns:xlink="http://www.w3.org/1999/xlink" viewBox="-25.6 -25.6 563.20 563.20" xml:space="preserve" fill="#ff8ab1" stroke="#ff8ab1" stroke-width="25.59975">
<g id="SVGRepo_bgCarrier" stroke-width="0"/>
<g id="SVGRepo_tracerCarrier" stroke-linecap="round" stroke-linejoin="round"/>
<g id="SVGRepo_iconCarrier"> <path style="fill:#ffffff;" d="M417.088,228.351h-7.578c-7.785-32.516-36.848-55.448-70.284-55.464 c-8.057,0.136-16.05,1.535-23.676,4.148c-22.565-63.697-92.496-97.037-156.194-74.472c-48.638,17.233-81.234,63.122-81.498,114.717 c0,4.236,0.232,8.409,0.639,12.541C27.311,238.374-7.259,286.812,1.302,338c7.601,45.497,47.104,78.748,93.232,78.485H417.04 c51.955,0.488,94.463-41.229,94.95-93.184s-41.229-94.463-93.184-94.95C418.239,228.343,417.656,228.343,417.088,228.351 L417.088,228.351z"/> </g>
</svg>